<?xml version="1.0" standalone="no"?>
<svg xmlns="http://www.w3.org/2000/svg" viewBox="0 0 79 60" width="79" height="60"><g fill="#59aca7" color="#59aca7" transform="translate(24.274 0) scale(0.6595745) "><svg width="46.0" height="47.0" x="0.0" y="0.0" viewBox="0 0 46 47"><path fill="currentColor" fill-rule="evenodd" d="M29.368 34c-.357-2.817-1.256-5.625-2.664-8.333C31.446 17.977 37.79 10.85 40.967 7.88c.424-.391.43-1.048.026-1.452a1.09 1.09 0 0 0-1.5-.03c-3.121 2.922-9.208 9.727-13.978 17.191a32.399 32.399 0 0 0-3.317-4.38A33.66 33.66 0 0 0 21 17.944C25.495 9.464 34.858 2.943 43.85 2c.536 7.76.436 28.055-14.482 32M45.735.954c1.633 19.467-4.343 32.71-16.014 35.665.025.822.004 1.645-.062 2.464-.05.567-.53.977-1.122.948-.575-.047-1-.553-.954-1.12.333-4.033-.589-8.19-2.623-12.13a1.005 1.005 0 0 1-.247-.483 30.13 30.13 0 0 0-3.759-5.38 31.99 31.99 0 0 0-1.392-1.493 1.041 1.041 0 0 1-.404-.408c-4.85-4.747-11.072-7.914-16.908-8.55-.828 11.951 1.479 22.016 6.387 27.727 2.99 3.476 6.928 5.405 11.703 5.73a1.04 1.04 0 0 1 .966 1.107 1.026 1.026 0 0 1-1.03.969c-.023 0-.044 0-.072-.004-5.349-.37-9.77-2.54-13.139-6.452C1.572 33.16-.84 22.404.261 9.257c.044-.56.5-1.026 1.095-.948 6.283.368 13.073 3.535 18.444 8.463C24.812 7.532 35.028.567 44.637.004c.553-.053 1.051.392 1.098.95zM5.766 14.286C11 19.306 23.355 34.181 25.975 45.738a1.046 1.046 0 0 1-.789 1.24 1.224 1.224 0 0 1-.23.022c-.475 0-.906-.327-1.013-.807C21.427 35.089 9.413 20.652 4.32 15.776a1.026 1.026 0 0 1-.027-1.46c.4-.41 1.064-.421 1.474-.03z"></path></svg></g><line x1="25.184000000000005" y1="37" x2="53.704" y2="37" stroke="#399e43" stroke-linecap="round"></line><path fill="#399e43" fill-rule="nonzero" d="M13.10 0L13.10 0Q13.61 0 13.80 0.72L13.80 0.72Q13.66 3.14 13.49 4.16Q13.32 5.18 13.21 5.95Q13.10 6.72 13.07 7.01Q13.03 7.30 12.86 8.18Q12.70 9.07 12.52 9.95Q12.34 10.82 12.30 10.99Q12.26 11.16 11.86 13.14Q11.45 15.12 11.24 15.56Q11.04 16.01 10.55 16.01Q10.06 16.01 9.77 15.72L9.77 15.72Q8.66 14.21 7.68 11.98L7.68 11.98Q7.44 11.40 7.14 10.73Q6.84 10.06 6.70 9.72L6.70 9.72L6.48 9.22Q5.98 10.08 5.09 12.14Q4.20 14.21 3.53 15.46L3.53 15.46Q3.10 16.01 2.57 16.01L2.57 16.01Q1.46 16.01 0.89 10.13L0.89 10.13Q0.89 10.10 0.85 9.86Q0.82 9.62 0.76 9.02Q0.70 8.42 0.61 7.69Q0.53 6.96 0 1.63L0 1.63Q0 1.15 0.36 0.76Q0.72 0.36 1.15 0.36L1.15 0.36Q1.68 0.36 1.87 1.06L1.87 1.06Q2.52 8.86 3.17 12.58L3.17 12.58Q3.36 12.24 4.15 10.36Q4.94 8.47 5.59 7.36Q6.24 6.24 6.84 6.24L6.84 6.24Q7.25 6.24 7.54 6.67L7.54 6.67Q9.05 10.97 10.13 12.72L10.13 12.72Q10.15 12.46 10.42 11.28L10.42 11.28L10.73 9.74Q10.73 9.60 10.79 9.34Q10.85 9.07 10.88 8.82Q10.92 8.57 10.97 8.35L10.97 8.35L11.23 6.84Q11.81 3.29 11.95 1.01L11.95 1.01Q12.05 0.60 12.40 0.30Q12.74 0 13.10 0ZM16.73 15.36L16.73 15.36Q16.63 15.96 15.88 15.96Q15.12 15.96 15.12 15.34L15.12 15.34Q15.12 13.92 16.51 9.58L16.51 9.58Q17.14 7.58 17.90 6.26Q18.67 4.94 19.39 4.94L19.39 4.94Q19.78 4.94 20.06 5.40Q20.35 5.86 21.11 7.48Q21.86 9.10 22.37 10.91Q22.87 12.72 23.47 15.34L23.47 15.34Q23.47 15.65 23.26 15.83Q23.04 16.01 22.73 16.01L22.73 16.01Q21.96 16.01 21.77 15.34L21.77 15.34L20.93 12.05Q18.82 12.05 17.54 11.71L17.54 11.71Q16.82 14.35 16.73 15.36ZM19.32 7.15L19.32 7.15Q18.53 8.50 18.02 10.15L18.02 10.15Q19.08 10.44 20.52 10.44L20.52 10.44Q20.06 8.78 19.32 7.15ZM25.61 7.63Q25.61 6.50 26.76 5.70Q27.91 4.90 29.58 4.90Q31.25 4.90 32.11 5.33Q32.98 5.76 32.98 6.43L32.98 6.43Q32.98 6.74 32.77 6.95Q32.57 7.15 32.28 7.15Q31.99 7.15 31.14 6.77Q30.29 6.38 29.60 6.38Q28.92 6.38 28.16 6.76Q27.41 7.13 27.41 7.68Q27.41 8.23 28.32 8.66Q29.23 9.10 30.48 9.41Q31.73 9.72 32.15 10.02Q32.57 10.32 32.75 10.50Q32.93 10.68 33.12 11.20Q33.31 11.71 33.31 12.53L33.31 12.53Q33.31 14.28 32.17 15.13Q31.03 15.98 29.46 15.98Q27.89 15.98 26.76 15.48Q25.63 14.98 25.63 14.23L25.63 14.23Q25.63 13.85 25.96 13.55Q26.28 13.25 26.64 13.39L26.64 13.39Q28.90 14.28 29.47 14.28L29.47 14.28Q30.50 14.28 31.06 13.76Q31.61 13.25 31.61 12.46Q31.61 11.66 30.98 11.24Q30.36 10.82 29.48 10.63Q28.61 10.44 27.73 10.20Q26.86 9.96 26.23 9.36Q25.61 8.76 25.61 7.63ZM42.29 5.90L42.29 11.11L42.26 14.66Q42.26 16.01 41.40 16.01L41.40 16.01Q40.99 16.01 40.79 15.84Q40.58 15.67 40.61 15.31L40.61 15.31Q40.70 14.04 40.70 11.26L40.70 11.26Q40.30 11.30 39.44 11.30Q38.59 11.30 36.79 11.11L36.79 11.11L36.79 11.62Q36.79 12.12 36.98 15.26L36.98 15.26Q37.01 15.65 36.71 15.83Q36.41 16.01 36.10 16.01Q35.78 16.01 35.60 15.83Q35.42 15.65 35.40 15.41L35.40 15.41Q35.14 12.91 35.14 11.63Q35.14 10.34 35.16 9.89L35.16 9.89L35.26 5.88Q35.28 5.59 35.58 5.39Q35.88 5.18 36.22 5.18L36.22 5.18Q36.84 5.18 36.84 5.71L36.84 5.71L36.79 9.48Q37.99 9.67 38.88 9.67Q39.77 9.67 39.96 9.67L39.96 9.67L40.70 9.67Q40.63 8.35 40.63 5.69L40.63 5.69Q40.63 5.35 40.96 5.14Q41.28 4.92 41.65 4.92Q42.02 4.92 42.17 5.26Q42.31 5.59 42.29 5.90L42.29 5.90ZM52.68 3.50Q52.68 4.75 52.02 5.58Q51.36 6.41 49.85 7.34L49.85 7.34Q50.14 7.78 50.78 8.66Q51.43 9.55 51.58 9.77L51.58 9.77L52.32 10.99Q53.04 9.82 53.16 9.22L53.16 9.22Q53.35 8.50 54.14 8.50L54.14 8.50Q54.55 8.50 54.82 8.72Q55.08 8.95 55.08 9.34L55.08 9.34Q55.08 10.27 53.21 12.53L53.21 12.53Q53.95 13.97 54.31 15.02L54.31 15.02Q54.26 15.38 53.98 15.65Q53.69 15.91 53.33 15.91Q52.97 15.91 52.68 15.62L52.68 15.62Q52.49 15.34 52.37 14.98Q52.25 14.62 51.96 13.94L51.96 13.94Q50.86 15.12 50.11 15.54Q49.37 15.96 48.40 15.96Q47.42 15.96 46.44 15.19Q45.46 14.42 44.95 13.30L44.95 13.30Q44.45 12.29 44.45 11.28L44.45 11.28Q44.45 9.70 45.26 8.72Q46.08 7.75 47.66 6.84L47.66 6.84Q46.54 4.80 46.54 3.34Q46.54 1.87 47.44 1.01Q48.34 0.14 49.61 0.14Q50.88 0.14 51.78 1.20Q52.68 2.26 52.68 3.50ZM49.66 1.97L49.66 1.97Q48.41 1.97 48.36 3.98L48.36 3.98Q48.48 5.02 49.06 6.05L49.06 6.05Q50.74 5.04 50.74 4.04Q50.74 3.05 50.38 2.50L50.38 2.50Q50.06 1.97 49.66 1.97ZM48.36 13.92L48.36 13.92Q49.61 13.92 51.12 12.38L51.12 12.38Q51.02 12.24 50.88 12.01Q50.74 11.78 50.46 11.36Q50.18 10.94 49.64 10.19Q49.10 9.43 48.67 8.59L48.67 8.59L48.48 8.26Q47.71 8.81 47.40 9.10L47.40 9.10Q46.32 10.03 46.32 11.27Q46.32 12.50 47.16 13.39L47.16 13.39Q47.64 13.92 48.36 13.92ZM64.15 0.31L64.15 0.31Q65.76 0.31 67.70 0.94L67.70 0.94Q68.14 1.27 68.14 1.67Q68.14 2.06 67.74 2.36Q67.34 2.66 66.84 2.66L66.84 2.66Q65.54 2.33 64.42 2.33L64.42 2.33Q61.82 2.33 60.48 3.86Q59.14 5.40 59.14 8.42Q59.14 11.45 60.72 13.15L60.72 13.15Q61.54 14.04 62.66 14.04Q63.79 14.04 66.26 12.84L66.26 12.84Q67.13 12.43 67.42 12.43L67.42 12.43Q68.04 12.43 68.04 13.08Q68.04 13.73 67.44 14.16L67.44 14.16Q65.38 15.24 64.22 15.61Q63.07 15.98 62.23 15.98L62.23 15.98Q60.50 15.98 59.28 14.71L59.28 14.71Q57.10 12.36 57.10 8.29Q57.10 4.22 59.17 2.27Q61.25 0.31 64.15 0.31ZM74.93 5.04L74.93 5.04Q76.70 5.04 77.80 6.41Q78.89 7.78 78.89 10.15Q78.89 12.53 77.69 14.26Q76.49 15.98 74.64 15.98L74.64 15.98Q72.62 15.98 71.35 14.26Q70.08 12.53 70.08 10.03Q70.08 7.54 71.40 6.29Q72.72 5.04 74.93 5.04ZM77.16 10.42Q77.16 8.50 76.61 7.60Q76.06 6.70 74.66 6.70Q73.27 6.70 72.50 7.55Q71.74 8.40 71.74 9.97Q71.74 11.54 72.55 12.89Q73.37 14.23 74.81 14.23L74.81 14.23Q75.62 14.23 76.20 13.54L76.20 13.54Q77.16 12.34 77.16 10.42Z" transform="translate(0, 43)"></path></svg>